<mxfile host="app.diagrams.net" modified="2022-05-16T16:51:38.710Z" agent="5.0 (Windows NT 10.0; Win64; x64) AppleWebKit/537.36 (KHTML, like Gecko) Chrome/99.0.4844.84 Safari/537.36" etag="_B6KSJ_zcfFWWzo2Y_oA" version="17.4.0" type="github">
  <diagram id="VWP-V-gQ_CtkoEKSoI8s" name="Page-1">
    <mxGraphModel dx="629" dy="346" grid="1" gridSize="1" guides="1" tooltips="1" connect="0" arrows="0" fold="1" page="1" pageScale="1" pageWidth="827" pageHeight="1169" math="0" shadow="0">
      <root>
        <mxCell id="0" />
        <mxCell id="1" parent="0" />
        <mxCell id="tY3v_4gYZZbXEHpPjtdN-1" value="" style="endArrow=none;html=1;rounded=0;" edge="1" parent="1">
          <mxGeometry width="50" height="50" relative="1" as="geometry">
            <mxPoint x="360" y="440" as="sourcePoint" />
            <mxPoint x="600" y="440" as="targetPoint" />
          </mxGeometry>
        </mxCell>
        <mxCell id="tY3v_4gYZZbXEHpPjtdN-2" value="" style="endArrow=none;html=1;rounded=0;" edge="1" parent="1">
          <mxGeometry width="50" height="50" relative="1" as="geometry">
            <mxPoint x="380" y="480" as="sourcePoint" />
            <mxPoint x="410" y="480" as="targetPoint" />
          </mxGeometry>
        </mxCell>
        <mxCell id="tY3v_4gYZZbXEHpPjtdN-3" value="" style="endArrow=none;html=1;rounded=0;" edge="1" parent="1">
          <mxGeometry width="50" height="50" relative="1" as="geometry">
            <mxPoint x="450" y="480" as="sourcePoint" />
            <mxPoint x="480" y="480" as="targetPoint" />
          </mxGeometry>
        </mxCell>
        <mxCell id="tY3v_4gYZZbXEHpPjtdN-4" value="" style="endArrow=none;html=1;rounded=0;" edge="1" parent="1">
          <mxGeometry width="50" height="50" relative="1" as="geometry">
            <mxPoint x="414" y="480" as="sourcePoint" />
            <mxPoint x="444" y="480" as="targetPoint" />
          </mxGeometry>
        </mxCell>
        <mxCell id="tY3v_4gYZZbXEHpPjtdN-5" value="" style="endArrow=none;html=1;rounded=0;startArrow=none;" edge="1" parent="1" source="tY3v_4gYZZbXEHpPjtdN-8">
          <mxGeometry width="50" height="50" relative="1" as="geometry">
            <mxPoint x="370" y="490" as="sourcePoint" />
            <mxPoint x="400" y="490" as="targetPoint" />
          </mxGeometry>
        </mxCell>
        <mxCell id="tY3v_4gYZZbXEHpPjtdN-6" value="" style="endArrow=none;html=1;rounded=0;startArrow=none;" edge="1" parent="1" source="tY3v_4gYZZbXEHpPjtdN-17">
          <mxGeometry width="50" height="50" relative="1" as="geometry">
            <mxPoint x="440" y="490" as="sourcePoint" />
            <mxPoint x="470" y="490" as="targetPoint" />
          </mxGeometry>
        </mxCell>
        <mxCell id="tY3v_4gYZZbXEHpPjtdN-7" value="" style="endArrow=none;html=1;rounded=0;startArrow=none;" edge="1" parent="1" source="tY3v_4gYZZbXEHpPjtdN-15">
          <mxGeometry width="50" height="50" relative="1" as="geometry">
            <mxPoint x="404" y="490" as="sourcePoint" />
            <mxPoint x="434" y="490" as="targetPoint" />
          </mxGeometry>
        </mxCell>
        <mxCell id="tY3v_4gYZZbXEHpPjtdN-8" value="" style="ellipse;whiteSpace=wrap;html=1;aspect=fixed;fillColor=#000000;" vertex="1" parent="1">
          <mxGeometry x="386" y="487" width="6" height="6" as="geometry" />
        </mxCell>
        <mxCell id="tY3v_4gYZZbXEHpPjtdN-14" value="" style="endArrow=none;html=1;rounded=0;" edge="1" parent="1" target="tY3v_4gYZZbXEHpPjtdN-8">
          <mxGeometry width="50" height="50" relative="1" as="geometry">
            <mxPoint x="370" y="490" as="sourcePoint" />
            <mxPoint x="400" y="490" as="targetPoint" />
          </mxGeometry>
        </mxCell>
        <mxCell id="tY3v_4gYZZbXEHpPjtdN-15" value="" style="ellipse;whiteSpace=wrap;html=1;aspect=fixed;fillColor=#000000;" vertex="1" parent="1">
          <mxGeometry x="416" y="487" width="6" height="6" as="geometry" />
        </mxCell>
        <mxCell id="tY3v_4gYZZbXEHpPjtdN-16" value="" style="endArrow=none;html=1;rounded=0;" edge="1" parent="1" target="tY3v_4gYZZbXEHpPjtdN-15">
          <mxGeometry width="50" height="50" relative="1" as="geometry">
            <mxPoint x="404" y="490" as="sourcePoint" />
            <mxPoint x="434" y="490" as="targetPoint" />
          </mxGeometry>
        </mxCell>
        <mxCell id="tY3v_4gYZZbXEHpPjtdN-17" value="" style="ellipse;whiteSpace=wrap;html=1;aspect=fixed;fillColor=#000000;" vertex="1" parent="1">
          <mxGeometry x="457" y="487" width="6" height="6" as="geometry" />
        </mxCell>
        <mxCell id="tY3v_4gYZZbXEHpPjtdN-18" value="" style="endArrow=none;html=1;rounded=0;" edge="1" parent="1" target="tY3v_4gYZZbXEHpPjtdN-17">
          <mxGeometry width="50" height="50" relative="1" as="geometry">
            <mxPoint x="440" y="490" as="sourcePoint" />
            <mxPoint x="470" y="490" as="targetPoint" />
          </mxGeometry>
        </mxCell>
        <mxCell id="tY3v_4gYZZbXEHpPjtdN-19" value="" style="endArrow=none;html=1;rounded=0;" edge="1" parent="1">
          <mxGeometry width="50" height="50" relative="1" as="geometry">
            <mxPoint x="360" y="540" as="sourcePoint" />
            <mxPoint x="600" y="540" as="targetPoint" />
          </mxGeometry>
        </mxCell>
        <mxCell id="tY3v_4gYZZbXEHpPjtdN-25" value="" style="endArrow=none;html=1;rounded=0;" edge="1" parent="1">
          <mxGeometry width="50" height="50" relative="1" as="geometry">
            <mxPoint x="770" y="1169.0041109969166" as="sourcePoint" />
            <mxPoint x="770" y="1170.9958890030834" as="targetPoint" />
          </mxGeometry>
        </mxCell>
        <mxCell id="tY3v_4gYZZbXEHpPjtdN-26" value="" style="endArrow=none;html=1;rounded=0;" edge="1" parent="1">
          <mxGeometry width="50" height="50" relative="1" as="geometry">
            <mxPoint x="770" y="1169.0041109969166" as="sourcePoint" />
            <mxPoint x="770" y="1170.9958890030834" as="targetPoint" />
          </mxGeometry>
        </mxCell>
        <mxCell id="tY3v_4gYZZbXEHpPjtdN-28" value="" style="endArrow=none;html=1;rounded=0;" edge="1" parent="1">
          <mxGeometry width="50" height="50" relative="1" as="geometry">
            <mxPoint x="594" y="489.9" as="sourcePoint" />
            <mxPoint x="624" y="489.9" as="targetPoint" />
          </mxGeometry>
        </mxCell>
        <mxCell id="tY3v_4gYZZbXEHpPjtdN-29" value="&lt;font style=&quot;font-size: 12px&quot;&gt;E&lt;sub&gt;f&lt;/sub&gt;&lt;/font&gt;" style="text;html=1;strokeColor=none;fillColor=none;align=center;verticalAlign=middle;whiteSpace=wrap;rounded=0;" vertex="1" parent="1">
          <mxGeometry x="619" y="480" width="14" height="6" as="geometry" />
        </mxCell>
        <mxCell id="tY3v_4gYZZbXEHpPjtdN-30" value="a" style="text;html=1;strokeColor=none;fillColor=none;align=center;verticalAlign=middle;whiteSpace=wrap;rounded=0;fontSize=12;" vertex="1" parent="1">
          <mxGeometry x="286" y="471" width="60" height="30" as="geometry" />
        </mxCell>
      </root>
    </mxGraphModel>
  </diagram>
</mxfile>
